<?xml version="1.0" standalone="no"?>
<!DOCTYPE svg PUBLIC "-//W3C//DTD SVG 20010904//EN"
 "http://www.w3.org/TR/2001/REC-SVG-20010904/DTD/svg10.dtd">
<svg version="1.0" xmlns="http://www.w3.org/2000/svg"
 width="1600.000000pt" height="900.000000pt" viewBox="0 0 1600.000000 900.000000"
 preserveAspectRatio="xMidYMid meet">

<g transform="translate(0.000000,900.000000) scale(0.100000,-0.100000)"
fill="#000000" stroke="none">
<path d="M0 4500 l0 -4500 8000 0 8000 0 0 4500 0 4500 -8000 0 -8000 0 0
-4500z m6283 1281 c144 -24 299 -137 365 -267 63 -125 63 -125 73 -754 9 -610
2 -910 -26 -1015 -36 -139 -127 -261 -249 -334 -31 -19 -92 -43 -134 -55 -74
-20 -101 -20 -747 -20 -601 0 -680 1 -764 17 -226 43 -374 180 -437 407 -17
59 -18 125 -22 745 -4 710 1 812 39 922 67 196 231 328 446 358 123 18 1346
14 1456 -4z m1171 -511 l26 -10 0 -433 c0 -461 5 -513 50 -577 31 -43 99 -72
169 -71 70 0 116 18 152 57 52 57 53 66 59 556 4 356 8 460 18 470 14 14 194
25 238 14 l24 -6 0 -469 c0 -273 -4 -490 -10 -521 -45 -236 -255 -369 -547
-346 -142 12 -240 53 -315 134 -56 60 -83 111 -103 194 -20 85 -22 1003 -2
1011 22 10 215 7 241 -3z m1600 4 c13 -5 16 -25 16 -115 0 -97 -2 -109 -19
-119 -12 -6 -104 -10 -231 -10 l-211 0 3 -137 3 -138 194 -2 c106 -1 196 -5
200 -8 3 -4 6 -57 6 -118 l0 -112 -202 -3 -203 -2 0 -265 c0 -254 -1 -265 -20
-275 -12 -6 -69 -9 -142 -8 l-123 3 -3 610 c-1 336 0 625 3 643 11 58 29 61
392 62 177 0 328 -3 337 -6z m384 -656 l2 -658 -24 -6 c-31 -8 -232 -1 -241 8
-9 9 -16 1281 -7 1294 13 20 36 23 152 21 l115 -2 3 -657z m710 284 c203 -78
296 -252 278 -523 -9 -150 -54 -258 -139 -336 -89 -82 -202 -119 -332 -110
-201 14 -334 120 -393 311 -22 73 -22 290 1 375 42 156 142 258 292 298 71 18
226 10 293 -15z m515 -7 c17 -17 64 -215 118 -498 7 -37 16 -64 20 -60 8 9 84
265 124 423 39 150 39 150 133 150 42 0 83 -4 90 -9 13 -8 26 -50 122 -395 30
-106 56 -182 60 -175 4 8 15 55 24 104 18 98 58 291 83 398 13 57 19 68 40 73
33 9 205 -4 217 -16 9 -9 -10 -83 -124 -500 -26 -96 -63 -231 -82 -300 l-34
-125 -117 -3 -117 -3 -11 28 c-12 33 -130 476 -137 516 -5 31 -18 36 -26 10
-4 -15 -93 -358 -130 -503 -10 -42 -14 -45 -51 -52 -38 -6 -195 0 -195 9 0 2
-22 83 -49 181 -27 97 -65 240 -86 317 -20 77 -55 203 -76 280 -21 76 -35 143
-31 146 8 9 63 15 154 17 47 2 71 -2 81 -13z"/>
<path d="M5902 5420 c-75 -36 -199 -115 -247 -157 -60 -52 -114 -135 -140
-213 -24 -73 -27 -94 -23 -170 4 -73 15 -115 64 -256 55 -158 59 -175 59 -259
0 -81 -3 -95 -30 -144 -112 -203 -401 -170 -502 57 -13 30 -37 119 -54 196
-62 297 -75 309 -170 163 -65 -100 -84 -172 -84 -317 0 -120 2 -128 32 -193
141 -300 425 -458 752 -418 320 39 543 212 644 498 29 83 31 97 31 233 0 164
-8 211 -78 417 -46 137 -59 189 -102 433 -25 142 -35 170 -58 170 -7 0 -49
-18 -94 -40z"/>
<path d="M9910 4692 c-73 -36 -105 -130 -98 -291 3 -77 8 -106 28 -146 36 -72
67 -90 150 -90 62 0 72 3 99 29 17 16 40 55 52 85 18 48 20 73 17 176 -3 106
-7 126 -30 171 -21 41 -36 55 -68 68 -51 20 -105 20 -150 -2z"/>
</g>
</svg>
